<svg width="1400" height="980" viewBox="0 0 1400 980" fill="none" xmlns="http://www.w3.org/2000/svg">
  <rect width="1400" height="980" rx="56" fill="#F8FAFC"/>
  <rect x="28" y="28" width="1344" height="924" rx="44" fill="url(#bg)"/>
  <g filter="url(#shadow)">
    <rect x="92" y="86" width="1216" height="808" rx="40" fill="#FFFFFF"/>
  </g>

  <rect x="144" y="140" width="364" height="700" rx="30" fill="#0F172A"/>
  <rect x="548" y="140" width="324" height="336" rx="30" fill="#F8FAFC"/>
  <rect x="548" y="512" width="324" height="328" rx="30" fill="#E2E8F0"/>
  <rect x="912" y="140" width="348" height="700" rx="30" fill="#FFF7ED"/>

  <rect x="182" y="188" width="158" height="18" rx="9" fill="#64748B"/>
  <rect x="182" y="228" width="212" height="66" rx="22" fill="#F59E0B"/>
  <rect x="182" y="322" width="286" height="172" rx="24" fill="#111827"/>
  <path d="M216 452C246 410 278 390 314 394C358 399 374 451 420 451C448 451 466 436 488 404" stroke="#38BDF8" stroke-width="16" stroke-linecap="round"/>
  <rect x="182" y="538" width="278" height="28" rx="14" fill="#1E293B"/>
  <rect x="182" y="586" width="224" height="22" rx="11" fill="#475569"/>
  <rect x="182" y="628" width="254" height="22" rx="11" fill="#475569"/>
  <rect x="182" y="670" width="178" height="22" rx="11" fill="#475569"/>
  <rect x="182" y="724" width="136" height="46" rx="18" fill="#E2E8F0"/>
  <rect x="332" y="724" width="124" height="46" rx="18" fill="#38BDF8"/>

  <rect x="588" y="184" width="138" height="16" rx="8" fill="#94A3B8"/>
  <rect x="588" y="222" width="238" height="84" rx="24" fill="#FFFFFF"/>
  <rect x="612" y="248" width="100" height="24" rx="12" fill="#0F172A"/>
  <rect x="736" y="248" width="66" height="24" rx="12" fill="#CBD5E1"/>
  <rect x="588" y="340" width="72" height="96" rx="20" fill="#F59E0B"/>
  <rect x="674" y="316" width="72" height="120" rx="20" fill="#38BDF8"/>
  <rect x="760" y="278" width="72" height="158" rx="20" fill="#0F172A"/>

  <rect x="588" y="556" width="238" height="32" rx="16" fill="#FFFFFF"/>
  <rect x="588" y="610" width="194" height="24" rx="12" fill="#FFFFFF" fill-opacity="0.85"/>
  <rect x="588" y="652" width="218" height="24" rx="12" fill="#FFFFFF" fill-opacity="0.85"/>
  <rect x="588" y="694" width="142" height="24" rx="12" fill="#FFFFFF" fill-opacity="0.85"/>
  <rect x="588" y="744" width="96" height="42" rx="18" fill="#0F172A"/>
  <rect x="698" y="744" width="98" height="42" rx="18" fill="#FFFFFF"/>

  <rect x="952" y="188" width="154" height="18" rx="9" fill="#9A3412" fill-opacity="0.65"/>
  <rect x="952" y="230" width="268" height="110" rx="26" fill="#FFFFFF"/>
  <circle cx="1002" cy="286" r="24" fill="#FED7AA"/>
  <rect x="1040" y="266" width="132" height="18" rx="9" fill="#0F172A"/>
  <rect x="1040" y="296" width="92" height="14" rx="7" fill="#94A3B8"/>

  <rect x="952" y="374" width="268" height="154" rx="26" fill="#FFF1E6"/>
  <path d="M988 482L1040 432L1080 456L1140 410L1184 434" stroke="#EA580C" stroke-width="14" stroke-linecap="round" stroke-linejoin="round"/>
  <circle cx="988" cy="482" r="10" fill="#EA580C"/>
  <circle cx="1040" cy="432" r="10" fill="#EA580C"/>
  <circle cx="1080" cy="456" r="10" fill="#EA580C"/>
  <circle cx="1140" cy="410" r="10" fill="#EA580C"/>
  <circle cx="1184" cy="434" r="10" fill="#EA580C"/>

  <rect x="952" y="562" width="268" height="232" rx="26" fill="#FFFFFF"/>
  <rect x="988" y="606" width="168" height="20" rx="10" fill="#0F172A"/>
  <rect x="988" y="646" width="194" height="16" rx="8" fill="#CBD5E1"/>
  <rect x="988" y="680" width="154" height="16" rx="8" fill="#CBD5E1"/>
  <rect x="988" y="722" width="92" height="42" rx="16" fill="#0F172A"/>
  <rect x="1096" y="722" width="96" height="42" rx="16" fill="#F59E0B"/>

  <rect x="104" y="96" width="214" height="54" rx="22" fill="#FFFFFF" fill-opacity="0.86"/>
  <rect x="126" y="114" width="76" height="18" rx="9" fill="#0F172A"/>
  <rect x="218" y="114" width="76" height="18" rx="9" fill="#CBD5E1"/>

  <defs>
    <linearGradient id="bg" x1="72" y1="40" x2="1288" y2="924" gradientUnits="userSpaceOnUse">
      <stop stop-color="#E2E8F0"/>
      <stop offset="0.5" stop-color="#FFF7ED"/>
      <stop offset="1" stop-color="#E0F2FE"/>
    </linearGradient>
    <filter id="shadow" x="56" y="62" width="1288" height="880" filterUnits="userSpaceOnUse" color-interpolation-filters="sRGB">
      <feFlood flood-opacity="0" result="BackgroundImageFix"/>
      <feColorMatrix in="SourceAlpha" type="matrix" values="0 0 0 0 0 0 0 0 0 0 0 0 0 0 0 0 0 0 127 0" result="hardAlpha"/>
      <feOffset dy="12"/>
      <feGaussianBlur stdDeviation="18"/>
      <feColorMatrix type="matrix" values="0 0 0 0 0.0588235 0 0 0 0 0.0901961 0 0 0 0 0.164706 0 0 0 0.14 0"/>
      <feBlend mode="normal" in2="BackgroundImageFix" result="effect1_dropShadow_1_2"/>
      <feBlend mode="normal" in="SourceGraphic" in2="effect1_dropShadow_1_2" result="shape"/>
    </filter>
  </defs>
</svg>